<svg width="33" height="30" viewBox="0 0 33 30" fill="none" xmlns="http://www.w3.org/2000/svg">
<rect width="33" height="30" fill="#E5E5E5"/>
<g clip-path="url(#clip0_0_1)">
<rect width="1600" height="4975" transform="translate(-541 -1882)" fill="white"/>
<rect width="1158" height="872" transform="translate(-321 -379)" fill="white"/>
<g clip-path="url(#clip1_0_1)">
<path fill-rule="evenodd" clip-rule="evenodd" d="M24.3979 28.6248C23.9372 26.9806 22.5636 25.0496 21.4936 22.9642C22.4107 24.7517 23.3279 26.5393 24.3979 28.6248ZM26.982 28.4368C25.4555 26.2079 24.5363 23.67 23.617 21.132C22.8548 20.3928 22.2475 20.7019 21.6402 21.0109C20.5785 21.927 19.5147 22.0927 20.7334 22.9753C22.2599 25.2042 23.3299 27.2897 24.0963 29.5297C24.3999 29.3751 25.0072 29.0661 25.3109 28.9115C25.9182 28.6025 26.069 28.15 26.982 28.4368ZM20.4236 20.8787C19.9629 19.2345 18.5893 17.3036 17.5193 15.2181C18.4364 17.0056 19.3536 18.7932 20.4236 20.8787ZM16.2964 12.8347C15.9886 11.4884 14.4621 9.25954 13.545 7.47198C14.4621 9.25954 15.2264 10.7492 16.4493 13.1326C16.4493 13.1326 16.4493 13.1326 16.2964 12.8347ZM18.8805 12.6467C17.5069 10.7158 16.5877 8.17781 15.5156 5.34194C14.9062 4.90062 14.2989 5.20968 13.6916 5.51875C12.6299 6.43481 11.5661 6.60048 12.7848 7.48312C14.1585 9.41407 15.3813 11.7975 16.1477 14.0375C16.4513 13.883 17.0586 13.5739 17.3623 13.4194C17.8167 12.8124 18.1204 12.6578 18.8805 12.6467ZM12.3221 5.08857C12.0144 3.74233 10.4878 1.51346 9.5707 -0.274103C10.4878 1.51346 11.2521 3.00309 12.475 5.3865L12.3221 5.08857ZM14.9062 4.90062C13.5326 2.96967 12.6134 0.431723 11.5413 -2.40415C10.9319 -2.84547 10.3247 -2.5364 9.71736 -2.22733C8.65562 -1.31128 7.43896 -1.44353 8.81055 -0.262963C10.1842 1.66799 11.4071 4.0514 12.1734 6.29142C12.4771 6.13688 13.0844 5.82782 13.2351 5.37536C13.8424 5.06629 14.1461 4.91176 14.9062 4.90062ZM14.3217 13.4639C13.105 13.3317 12.192 13.0449 10.9754 12.9126C12.192 13.0449 12.9522 13.0338 14.3217 13.4639C12.4957 12.8904 11.1261 12.4602 9.45298 12.1845C10.8225 12.6147 12.0392 12.747 13.8652 13.3205C11.8863 12.449 10.2131 12.1734 8.69076 11.4453C10.0603 11.8755 11.4298 12.3056 13.4087 13.1771C11.7334 12.1511 9.90742 11.5775 8.08139 11.004C9.90742 11.5775 11.8863 12.449 14.3217 13.4639C14.7782 13.6073 14.7782 13.6073 14.3217 13.4639ZM13.7144 13.773C13.7144 13.773 13.4107 13.9275 13.2579 13.6296C10.9774 13.663 9.00061 13.5419 7.17665 13.7187C8.84982 13.9944 10.6738 13.8176 12.4977 13.6407C10.6738 13.8176 9.15346 13.8398 7.78601 14.16C9.30632 14.1378 11.1303 13.9609 12.9542 13.7841C11.4339 13.8064 10.0665 14.1266 8.69903 14.4468C10.523 14.27 11.8904 13.9498 13.4107 13.9275C12.3469 14.0932 11.2831 14.2589 10.2193 14.4245C11.2831 14.2589 12.3469 14.0932 13.4107 13.9275C13.7144 13.773 13.7144 13.773 13.7144 13.773ZM14.6315 15.5606C14.0242 15.8696 13.5698 16.4766 12.6588 16.9402C13.2661 16.6311 13.7206 16.0242 14.6315 15.5606C13.7206 16.0242 12.6588 16.9402 11.7479 17.4038C12.6588 16.9402 13.4169 16.1787 14.3279 15.7151C13.1133 16.3332 11.8987 16.9514 10.837 17.8674C11.595 17.1059 12.8096 16.4878 14.0242 15.8696C12.8096 16.4878 11.595 17.1059 10.3805 17.724C11.595 17.1059 12.9604 16.0353 14.4787 15.2626C14.7823 15.1081 14.9352 15.406 14.6315 15.5606ZM14.7844 15.8585C14.4807 16.013 14.4807 16.013 14.4807 16.013C13.2682 17.3815 12.3593 18.5955 11.7541 19.655C12.3593 18.5955 13.2682 17.3815 14.0263 16.62C13.4211 17.6795 12.663 18.441 12.0578 19.5004C12.663 18.441 13.5719 17.227 14.1771 16.1675C13.5719 17.227 13.2703 18.1319 12.8158 18.7389C13.2703 18.1319 13.8755 17.0725 14.4807 16.013C14.1792 16.9179 13.7247 17.5249 13.5739 17.9774C14.0284 17.3704 14.0263 16.62 14.4807 16.013L14.7844 15.8585ZM15.5425 15.097C15.8461 14.9424 15.8461 14.9424 16.1498 14.7879C16.3026 15.0858 16.3026 15.0858 16.7591 15.2292C18.2856 17.4581 19.3556 19.5436 20.122 21.7836C20.4256 21.6291 21.0329 21.32 21.3366 21.1655C21.791 20.5585 22.0947 20.4039 22.8548 20.3928C21.4812 18.4618 20.562 15.9239 19.4899 13.088C18.8805 12.6467 18.2732 12.9558 17.6659 13.2648C16.9079 14.0264 16.1477 14.0375 15.9969 14.49C15.8441 14.192 15.3875 14.0486 15.2347 13.7507C15.0818 13.4528 14.6253 13.3094 13.8631 12.5702C11.8842 11.6987 8.68869 10.6949 7.01553 10.4193C7.4741 11.313 9.90948 12.3279 11.8884 13.1994C9.91155 13.0783 7.32744 13.2663 5.8092 14.0389C7.33157 14.767 12.9563 14.5345 14.6274 14.0598C14.6274 14.0598 14.931 13.9052 15.0839 14.2032C15.5404 14.3466 15.9969 14.49 16.1498 14.7879C15.8461 14.9424 15.5425 15.097 15.086 14.9536C15.086 14.9536 14.7823 15.1081 14.175 15.4172C12.5039 15.8919 10.5312 17.2716 9.46951 18.1876C10.3825 18.4744 12.2044 17.5472 13.5698 16.4766C12.6609 17.6906 11.6012 19.357 10.996 20.4165C12.3635 20.0963 14.7865 16.6089 14.9352 15.406C15.2388 15.2515 15.2388 15.2515 15.5425 15.097Z" fill="#468E0D"/>
<path d="M28.1743 7.23909L28.1782 7.22513L28.178 7.21063L28.0821 1.15258L28.0819 1.14258L28.0798 1.13282C28.0313 0.910613 28.1382 0.696036 28.374 0.522101C28.61 0.348069 28.9617 0.227531 29.3541 0.204563C30.1288 0.159213 31.0324 0.49436 31.4726 1.49825C31.2842 2.37437 31.1772 3.23827 31.0707 4.09719L31.0705 4.09934C30.9625 4.97054 30.8552 5.83663 30.6646 6.71396L30.6554 6.75618L30.6798 6.79179C33.1412 10.3771 33.4114 14.285 32.1986 17.8178C30.9849 21.3533 28.2846 24.5151 24.8031 26.5944C21.3223 28.6733 17.0657 29.6672 12.7422 28.8738C8.42473 28.0815 4.03183 25.5054 0.272911 20.43C0.133783 19.8475 0.0778791 19.3617 0.107862 18.9745C0.138149 18.5834 0.255102 18.3025 0.452161 18.1196C0.648968 17.937 0.941107 17.838 1.35208 17.843C1.76321 17.848 2.28406 17.9573 2.92488 18.1815C13.4167 22.5384 25.0393 18.4704 28.1743 7.23909Z" fill="#FFEE2E" stroke="#468E0D" stroke-width="0.2"/>
<rect x="-320.5" y="-378.5" width="365" height="425" rx="4.5" stroke="url(#paint0_linear_0_1)"/>
</g>
</g>
<defs>
<linearGradient id="paint0_linear_0_1" x1="-337.215" y1="-315.889" x2="123.96" y2="-139.782" gradientUnits="userSpaceOnUse">
<stop stop-color="#FA6F32"/>
<stop offset="1" stop-color="#FE9013"/>
</linearGradient>
<clipPath id="clip0_0_1">
<rect width="1600" height="4975" fill="white" transform="translate(-541 -1882)"/>
</clipPath>
<clipPath id="clip1_0_1">
<rect width="1158" height="872" fill="white" transform="translate(-321 -379)"/>
</clipPath>
</defs>
</svg>
