<svg width="14" height="14" viewBox="0 0 14 14" fill="none" xmlns="http://www.w3.org/2000/svg">
<rect width="14" height="14" fill="#E5E5E5"/>
<g clip-path="url(#clip0_0_1)">
<rect width="1600" height="2391" transform="translate(-697 -1141)" fill="white"/>
<rect x="-697" y="-675" width="1600" height="1482" fill="url(#paint0_linear_0_1)"/>
<rect x="-697" y="-675" width="1600" height="1482" fill="url(#paint1_linear_0_1)"/>
<rect x="-697" y="-675" width="1600" height="1482" fill="url(#paint2_linear_0_1)"/>
<g filter="url(#filter0_b_0_1)">
<rect x="-477" y="-337" width="1160" height="964" rx="20" fill="white" fill-opacity="0.52"/>
</g>
<path d="M1 14C0.744141 14 0.488281 13.9023 0.292969 13.707C-0.0976562 13.3164 -0.0976562 12.6836 0.292969 12.293L12.293 0.292969C12.6836 -0.0976562 13.3164 -0.0976562 13.707 0.292969C14.0977 0.683594 14.0977 1.31641 13.707 1.70703L1.70703 13.707C1.51172 13.9023 1.25586 14 1 14Z" fill="#333B41"/>
<path d="M13 14C12.7441 14 12.4883 13.9023 12.293 13.707L0.292969 1.70703C-0.0976562 1.31641 -0.0976562 0.683594 0.292969 0.292969C0.683594 -0.0976562 1.31641 -0.0976562 1.70703 0.292969L13.707 12.293C14.0977 12.6836 14.0977 13.3164 13.707 13.707C13.5117 13.9023 13.2559 14 13 14Z" fill="#333B41"/>
</g>
<defs>
<filter id="filter0_b_0_1" x="-481" y="-341" width="1168" height="972" filterUnits="userSpaceOnUse" color-interpolation-filters="sRGB">
<feFlood flood-opacity="0" result="BackgroundImageFix"/>
<feGaussianBlur in="BackgroundImage" stdDeviation="2"/>
<feComposite in2="SourceAlpha" operator="in" result="effect1_backgroundBlur_0_1"/>
<feBlend mode="normal" in="SourceGraphic" in2="effect1_backgroundBlur_0_1" result="shape"/>
</filter>
<linearGradient id="paint0_linear_0_1" x1="41" y1="949.88" x2="-1836.26" y2="-1130.42" gradientUnits="userSpaceOnUse">
<stop offset="0.0647506" stop-color="#FEBDAB" stop-opacity="0.74"/>
<stop offset="0.225114" stop-color="#F3A9F8" stop-opacity="0.66"/>
<stop offset="0.45571" stop-color="#E0D8F0"/>
<stop offset="0.823271" stop-color="#EAF7FE"/>
<stop offset="0.991019" stop-color="#EAF7FE"/>
</linearGradient>
<linearGradient id="paint1_linear_0_1" x1="41" y1="949.88" x2="-1836.26" y2="-1130.42" gradientUnits="userSpaceOnUse">
<stop offset="0.0647506" stop-color="#FEBDAB" stop-opacity="0.74"/>
<stop offset="0.225114" stop-color="#F3A9F8" stop-opacity="0.66"/>
<stop offset="0.45571" stop-color="#E0D8F0"/>
<stop offset="0.823271" stop-color="#EAF7FE"/>
<stop offset="0.991019" stop-color="#EAF7FE"/>
</linearGradient>
<linearGradient id="paint2_linear_0_1" x1="41" y1="949.88" x2="-1836.26" y2="-1130.42" gradientUnits="userSpaceOnUse">
<stop offset="0.0647506" stop-color="#FED290" stop-opacity="0.7"/>
<stop offset="0.614306" stop-color="#FEBDAB"/>
<stop offset="0.65625" stop-color="#FED290" stop-opacity="0.7"/>
</linearGradient>
<clipPath id="clip0_0_1">
<rect width="1600" height="2391" fill="white" transform="translate(-697 -1141)"/>
</clipPath>
</defs>
</svg>
