<svg width="915" height="2" viewBox="0 0 915 2" fill="none" xmlns="http://www.w3.org/2000/svg">
<rect width="915" height="2" fill="#E5E5E5"/>
<g clip-path="url(#clip0_0_1)">
<rect width="1600" height="2391" transform="translate(-343 -1356)" fill="white"/>
<rect x="-343" y="-890" width="1600" height="1482" fill="url(#paint0_linear_0_1)"/>
<rect x="-343" y="-890" width="1600" height="1482" fill="url(#paint1_linear_0_1)"/>
<rect x="-343" y="-890" width="1600" height="1482" fill="url(#paint2_linear_0_1)"/>
<g filter="url(#filter0_b_0_1)">
<rect x="-123" y="-552" width="1160" height="964" rx="20" fill="white" fill-opacity="0.52"/>
</g>
<rect x="-31" y="-12" width="976" height="27" rx="2" fill="#404950"/>
<rect width="915" height="2" fill="#72828E"/>
<circle cy="1" r="5" fill="#FFEE2E"/>
<circle cx="130" cy="1" r="5" fill="#FFEE2E"/>
<circle cx="260" cy="1" r="5" fill="#FFEE2E"/>
<circle cx="390" cy="1" r="5" fill="#FFEE2E"/>
<circle cx="520" r="5" fill="#FFEE2E"/>
<circle cx="650" cy="2" r="5" fill="#FFEE2E"/>
<circle cx="780" cy="1" r="5" fill="#FFEE2E"/>
<circle cx="910" cy="1" r="5" fill="#FFEE2E"/>
<path fill-rule="evenodd" clip-rule="evenodd" d="M271.477 0.999946C271.477 7.34377 266.344 12.4769 260 12.4769C253.657 12.4769 248.523 7.34377 248.523 0.999946C248.523 -5.34388 253.657 -10.4771 260 -10.4771C266.344 -10.4771 271.477 -5.34388 271.477 0.999946ZM260 -8.68528C265.376 -8.68528 269.734 -4.37536 269.734 0.999946C269.734 6.37525 265.376 10.7336 260 10.7336C254.625 10.7336 250.315 6.37525 250.315 0.999946C250.315 -4.37536 254.625 -8.68528 260 -8.68528Z" fill="#FE9013"/>
<path fill-rule="evenodd" clip-rule="evenodd" d="M260 -19C271.041 -19 280 -10.0412 280 1C280 12.0412 271.041 21 260 21C248.959 21 240 12.0412 240 1C240 -10.0412 248.959 -19 260 -19ZM260 -17.2082C270.073 -17.2082 278.257 -9.07264 278.257 1C278.257 11.0726 270.073 19.2567 260 19.2567C249.927 19.2567 241.792 11.0726 241.792 1C241.792 -9.07264 249.927 -17.2082 260 -17.2082Z" fill="#FE9013"/>
</g>
<defs>
<filter id="filter0_b_0_1" x="-127" y="-556" width="1168" height="972" filterUnits="userSpaceOnUse" color-interpolation-filters="sRGB">
<feFlood flood-opacity="0" result="BackgroundImageFix"/>
<feGaussianBlur in="BackgroundImage" stdDeviation="2"/>
<feComposite in2="SourceAlpha" operator="in" result="effect1_backgroundBlur_0_1"/>
<feBlend mode="normal" in="SourceGraphic" in2="effect1_backgroundBlur_0_1" result="shape"/>
</filter>
<linearGradient id="paint0_linear_0_1" x1="395" y1="734.88" x2="-1482.26" y2="-1345.42" gradientUnits="userSpaceOnUse">
<stop offset="0.0647506" stop-color="#FEBDAB" stop-opacity="0.74"/>
<stop offset="0.225114" stop-color="#F3A9F8" stop-opacity="0.66"/>
<stop offset="0.45571" stop-color="#E0D8F0"/>
<stop offset="0.823271" stop-color="#EAF7FE"/>
<stop offset="0.991019" stop-color="#EAF7FE"/>
</linearGradient>
<linearGradient id="paint1_linear_0_1" x1="395" y1="734.88" x2="-1482.26" y2="-1345.42" gradientUnits="userSpaceOnUse">
<stop offset="0.0647506" stop-color="#FEBDAB" stop-opacity="0.74"/>
<stop offset="0.225114" stop-color="#F3A9F8" stop-opacity="0.66"/>
<stop offset="0.45571" stop-color="#E0D8F0"/>
<stop offset="0.823271" stop-color="#EAF7FE"/>
<stop offset="0.991019" stop-color="#EAF7FE"/>
</linearGradient>
<linearGradient id="paint2_linear_0_1" x1="395" y1="734.88" x2="-1482.26" y2="-1345.42" gradientUnits="userSpaceOnUse">
<stop offset="0.0647506" stop-color="#FED290" stop-opacity="0.7"/>
<stop offset="0.614306" stop-color="#FEBDAB"/>
<stop offset="0.65625" stop-color="#FED290" stop-opacity="0.7"/>
</linearGradient>
<clipPath id="clip0_0_1">
<rect width="1600" height="2391" fill="white" transform="translate(-343 -1356)"/>
</clipPath>
</defs>
</svg>
